<?xml version="1.0" encoding="UTF-8"?>
<!DOCTYPE svg PUBLIC "-//W3C//DTD SVG 1.1//EN" "http://www.w3.org/Graphics/SVG/1.1/DTD/svg11.dtd">
<!-- Creator: CorelDRAW (Versión de evaluación) -->
<svg xmlns="http://www.w3.org/2000/svg" xml:space="preserve" width="23.647mm" height="23.6402mm" version="1.1" style="shape-rendering:geometricPrecision; text-rendering:geometricPrecision; image-rendering:optimizeQuality; fill-rule:evenodd; clip-rule:evenodd"
viewBox="0 0 343.17 343.07"
 xmlns:xlink="http://www.w3.org/1999/xlink"
 xmlns:xodm="http://www.corel.com/coreldraw/odm/2003">
 <defs>
  <style type="text/css">
   <![CDATA[
    .fil0 {fill:#00B0F0;fill-rule:nonzero}
   ]]>
  </style>
 </defs>
 <g id="Capa_x0020_1">
  <metadata id="CorelCorpID_0Corel-Layer"/>
  <path class="fil0" d="M146.28 134.03c13.85,20.19 38.04,32.61 63.92,32.61 25.88,0 50.07,-12.41 63.92,-32.61 -13.85,-20.19 -38.04,-32.61 -63.92,-32.61 -25.89,0 -50.07,12.41 -63.92,32.61zm63.92 42.76c-30.5,0 -58.97,-15.36 -74.3,-40.08 -1.02,-1.64 -1.02,-3.72 0,-5.35 15.33,-24.72 43.8,-40.09 74.3,-40.09 30.5,0 58.97,15.36 74.3,40.09 1.02,1.64 1.02,3.72 0,5.35 -15.33,24.72 -43.8,40.08 -74.3,40.08z"/>
  <path class="fil0" d="M210.22 101.42c-17.98,0 -32.61,14.63 -32.61,32.61 0,17.98 14.63,32.61 32.61,32.61 17.98,0 32.61,-14.63 32.61,-32.61 0,-17.98 -14.63,-32.61 -32.61,-32.61zm0 75.37c-23.58,0 -42.76,-19.18 -42.76,-42.76 0,-23.58 19.18,-42.76 42.76,-42.76 23.58,0 42.76,19.18 42.76,42.76 0,23.58 -19.18,42.76 -42.76,42.76z"/>
  <path class="fil0" d="M211.61 10.15c-31.09,0 -62.18,11.84 -85.85,35.5 -47.34,47.34 -47.34,124.36 0,171.7 22.93,22.93 53.42,35.56 85.85,35.56 32.43,0 62.92,-12.63 85.85,-35.56 22.93,-22.93 35.55,-53.42 35.55,-85.85 0,-32.43 -12.62,-62.91 -35.55,-85.85 -23.67,-23.67 -54.76,-35.5 -85.85,-35.5zm0 252.92c-35.14,0 -68.18,-13.69 -93.03,-38.54 -51.29,-51.3 -51.29,-134.76 0,-186.06 51.3,-51.3 134.77,-51.29 186.06,0 24.85,24.85 38.53,57.89 38.53,93.03 0,35.14 -13.68,68.18 -38.53,93.03 -24.85,24.84 -57.89,38.54 -93.03,38.54z"/>
  <path class="fil0" d="M282.41 202.3l0 0 -0 0zm-70.8 -165.82c-24.34,0 -48.69,9.27 -67.22,27.79 -17.95,17.95 -27.84,41.83 -27.84,67.22 0,25.39 9.89,49.26 27.84,67.21 37.07,37.06 97.37,37.06 134.43,0 17.95,-17.95 27.84,-41.83 27.84,-67.21 0,-25.39 -9.89,-49.27 -27.84,-67.22 -18.53,-18.53 -42.88,-27.79 -67.22,-27.79zm0 200.18c-26.94,0 -53.89,-10.25 -74.4,-30.77 -19.87,-19.87 -30.82,-46.29 -30.82,-74.4 0,-28.1 10.94,-54.52 30.82,-74.39 41.02,-41.02 107.77,-41.02 148.79,0 19.87,19.87 30.81,46.29 30.81,74.39 0,28.11 -10.94,54.53 -30.81,74.4 -20.51,20.51 -47.45,30.77 -74.39,30.77z"/>
  <path class="fil0" d="M105.89 258.54c-1.3,0 -2.6,-0.5 -3.59,-1.48l-16.27 -16.27c-0.95,-0.95 -1.48,-2.24 -1.48,-3.59 0,-1.35 0.53,-2.64 1.48,-3.59l24.76 -24.76c1.99,-1.98 5.2,-1.98 7.18,0 1.98,1.98 1.98,5.2 0,7.18l-21.17 21.17 9.08 9.08 21.17 -21.17c1.98,-1.98 5.2,-1.98 7.18,0 1.98,1.99 1.98,5.2 0,7.18l-24.76 24.76c-0.99,0.99 -2.29,1.48 -3.59,1.48z"/>
  <path class="fil0" d="M81.47 236.25l-66.46 66.46c-6.47,6.47 -6.47,16.99 0,23.46l1.88 1.88c3.13,3.13 7.3,4.86 11.73,4.86 4.43,0 8.6,-1.73 11.73,-4.85l66.46 -66.47 -25.34 -25.34zm-52.85 106.82c-7.14,0 -13.86,-2.78 -18.91,-7.83l-1.89 -1.89c-10.43,-10.42 -10.43,-27.39 0,-37.82l70.06 -70.06c0.95,-0.95 2.24,-1.48 3.59,-1.48 1.35,0 2.64,0.53 3.59,1.48l32.52 32.52c1.98,1.98 1.98,5.2 0,7.18l-70.06 70.05c-5.05,5.05 -11.77,7.83 -18.91,7.83z"/>
  <path class="fil0" d="M48.96 331.72c-1.3,0 -2.6,-0.5 -3.59,-1.49l-32.52 -32.52c-1.98,-1.99 -1.98,-5.2 0,-7.18 1.98,-1.98 5.2,-1.98 7.18,0l32.52 32.52c1.98,1.98 1.98,5.2 0,7.18 -0.99,0.99 -2.29,1.49 -3.59,1.49z"/>
  <path class="fil0" d="M210.22 128.34c-3.14,0 -5.69,2.55 -5.69,5.69 0,3.14 2.55,5.69 5.69,5.69 3.14,0 5.69,-2.55 5.69,-5.69 0,-3.13 -2.55,-5.69 -5.69,-5.69zm0 21.53c-8.74,0 -15.84,-7.11 -15.84,-15.85 0,-8.73 7.11,-15.84 15.84,-15.84 8.73,0 15.84,7.11 15.84,15.84 0,8.74 -7.11,15.85 -15.84,15.85z"/>
 </g>
</svg>
