<?xml version="1.0" encoding="UTF-8"?>
<!DOCTYPE svg PUBLIC "-//W3C//DTD SVG 1.1//EN" "http://www.w3.org/Graphics/SVG/1.1/DTD/svg11.dtd">
<!-- Creator: CorelDRAW (Versión de evaluación) -->
<svg xmlns="http://www.w3.org/2000/svg" xml:space="preserve" width="23.6434mm" height="23.6402mm" version="1.1" style="shape-rendering:geometricPrecision; text-rendering:geometricPrecision; image-rendering:optimizeQuality; fill-rule:evenodd; clip-rule:evenodd"
viewBox="0 0 339.29 339.24"
 xmlns:xlink="http://www.w3.org/1999/xlink"
 xmlns:xodm="http://www.corel.com/coreldraw/odm/2003">
 <defs>
  <style type="text/css">
   <![CDATA[
    .fil0 {fill:#70AD47;fill-rule:nonzero}
   ]]>
  </style>
 </defs>
 <g id="Capa_x0020_1">
  <metadata id="CorelCorpID_0Corel-Layer"/>
  <path class="fil0" d="M144.65 132.53c13.69,19.97 37.61,32.24 63.21,32.24 25.6,0 49.52,-12.28 63.21,-32.24 -13.69,-19.97 -37.61,-32.24 -63.21,-32.24 -25.6,0 -49.52,12.28 -63.21,32.24zm63.21 42.28c-30.16,0 -58.31,-15.19 -73.47,-39.63 -1.01,-1.62 -1.01,-3.68 0,-5.3 15.16,-24.45 43.31,-39.64 73.47,-39.64 30.16,0 58.31,15.19 73.47,39.64 1.01,1.62 1.01,3.68 0,5.3 -15.16,24.45 -43.31,39.63 -73.47,39.63z"/>
  <path class="fil0" d="M207.88 100.29c-17.78,0 -32.24,14.46 -32.24,32.24 0,17.78 14.46,32.24 32.24,32.24 17.78,0 32.24,-14.46 32.24,-32.24 0,-17.78 -14.46,-32.24 -32.24,-32.24zm0 74.53c-23.32,0 -42.29,-18.97 -42.29,-42.29 0,-23.32 18.97,-42.29 42.29,-42.29 23.32,0 42.29,18.97 42.29,42.29 0,23.32 -18.97,42.29 -42.29,42.29z"/>
  <path class="fil0" d="M209.2 10.04c-30.75,0 -61.49,11.7 -84.89,35.11 -46.81,46.81 -46.81,122.97 0,169.78 22.67,22.67 52.83,35.16 84.89,35.16 32.07,0 62.22,-12.49 84.89,-35.16 22.67,-22.67 35.16,-52.82 35.16,-84.89 0,-32.06 -12.48,-62.21 -35.16,-84.89 -23.41,-23.4 -54.15,-35.11 -84.89,-35.11zm0 250.09c-34.75,0 -67.42,-13.54 -92,-38.11 -50.72,-50.73 -50.72,-133.26 0,-183.98 50.73,-50.73 133.26,-50.72 183.98,0 24.57,24.57 38.1,57.24 38.1,91.99 0,34.75 -13.53,67.42 -38.1,92 -24.57,24.57 -57.24,38.11 -91.99,38.11z"/>
  <path class="fil0" d="M279.21 200.05l0 0 -0 0zm-70.01 -163.97c-24.07,0 -48.15,9.16 -66.47,27.49 -17.75,17.75 -27.53,41.35 -27.53,66.46 0,25.1 9.78,48.71 27.53,66.46 36.65,36.65 96.28,36.65 132.94,0 17.75,-17.75 27.53,-41.36 27.53,-66.46 0,-25.11 -9.78,-48.72 -27.53,-66.46 -18.33,-18.33 -42.4,-27.49 -66.46,-27.49zm0 197.94c-26.64,0 -53.29,-10.14 -73.57,-30.43 -19.65,-19.65 -30.47,-45.77 -30.47,-73.57 0,-27.79 10.82,-53.91 30.47,-73.56 40.57,-40.57 106.57,-40.57 147.13,0 19.65,19.65 30.47,45.77 30.47,73.56 0,27.79 -10.82,53.92 -30.47,73.57 -20.28,20.29 -46.92,30.43 -73.56,30.43z"/>
  <path class="fil0" d="M104.71 255.66c-1.29,0 -2.57,-0.49 -3.55,-1.47l-16.08 -16.08c-0.94,-0.94 -1.47,-2.22 -1.47,-3.55 0,-1.33 0.53,-2.61 1.47,-3.55l24.48 -24.48c1.96,-1.96 5.14,-1.96 7.1,0 1.96,1.96 1.96,5.14 0,7.1l-20.93 20.93 8.98 8.98 20.93 -20.93c1.96,-1.96 5.14,-1.96 7.1,0 1.96,1.96 1.96,5.14 0,7.1l-24.48 24.48c-0.98,0.98 -2.26,1.47 -3.55,1.47z"/>
  <path class="fil0" d="M80.56 233.62l-65.72 65.72c-6.4,6.4 -6.4,16.8 0,23.2l1.86 1.86c3.1,3.1 7.21,4.8 11.6,4.8 4.38,0 8.5,-1.71 11.6,-4.8l65.72 -65.73 -25.06 -25.06zm-52.26 105.63c-7.06,0 -13.7,-2.75 -18.7,-7.74l-1.86 -1.86c-10.31,-10.31 -10.31,-27.08 0,-37.4l69.27 -69.27c0.94,-0.94 2.22,-1.47 3.55,-1.47 1.33,0 2.61,0.53 3.55,1.47l32.16 32.16c1.96,1.96 1.96,5.14 0,7.1l-69.27 69.27c-4.99,5 -11.63,7.74 -18.7,7.74z"/>
  <path class="fil0" d="M48.41 328.02c-1.29,0 -2.57,-0.49 -3.55,-1.47l-32.16 -32.16c-1.96,-1.96 -1.96,-5.14 0,-7.1 1.96,-1.96 5.14,-1.96 7.1,0l32.16 32.16c1.96,1.96 1.96,5.14 0,7.1 -0.98,0.98 -2.26,1.47 -3.55,1.47z"/>
  <path class="fil0" d="M207.88 126.91c-3.1,0 -5.62,2.53 -5.62,5.62 0,3.1 2.52,5.63 5.62,5.63 3.1,0 5.63,-2.53 5.63,-5.63 0,-3.1 -2.52,-5.62 -5.63,-5.62zm0 21.29c-8.64,0 -15.67,-7.03 -15.67,-15.67 0,-8.64 7.03,-15.66 15.67,-15.66 8.64,0 15.67,7.03 15.67,15.66 0,8.64 -7.03,15.67 -15.67,15.67z"/>
 </g>
</svg>
