<?xml version="1.0" encoding="UTF-8"?>
<!DOCTYPE svg PUBLIC "-//W3C//DTD SVG 1.1//EN" "http://www.w3.org/Graphics/SVG/1.1/DTD/svg11.dtd">
<!-- Creator: CorelDRAW (Versión de evaluación) -->
<svg xmlns="http://www.w3.org/2000/svg" xml:space="preserve" width="27.4682mm" height="27.4635mm" version="1.1" style="shape-rendering:geometricPrecision; text-rendering:geometricPrecision; image-rendering:optimizeQuality; fill-rule:evenodd; clip-rule:evenodd"
viewBox="0 0 14012.74 14010.34"
 xmlns:xlink="http://www.w3.org/1999/xlink"
 xmlns:xodm="http://www.corel.com/coreldraw/odm/2003">
 <defs>
  <style type="text/css">
   <![CDATA[
    .fil0 {fill:#E5AA03;fill-rule:nonzero}
   ]]>
  </style>
 </defs>
 <g id="Capa_x0020_1">
  <metadata id="CorelCorpID_0Corel-Layer"/>
  <path class="fil0" d="M5972.87 5473.59c565.65,824.39 1553.29,1331.58 2610.41,1331.58 1057.17,0 2045.01,-506.98 2610.61,-1331.58 -565.6,-824.44 -1553.44,-1331.63 -2610.61,-1331.63 -1057.12,0 -2044.76,506.98 -2610.41,1331.63zm2610.41 1746.22c-1245.36,0 -2407.93,-627.22 -3034.24,-1637 -41.58,-66.93 -41.58,-151.56 0,-218.49 626.3,-1009.78 1788.87,-1637 3034.24,-1637 1245.41,0 2407.98,627.22 3034.29,1637 41.58,66.93 41.58,151.56 0,218.49 -626.3,1009.78 -1788.87,1637 -3034.29,1637z"/>
  <path class="fil0" d="M8584.2 4141.96c-734.25,0 -1331.58,597.33 -1331.58,1331.63 0,734.25 597.33,1331.58 1331.58,1331.58 734.25,0 1331.58,-597.33 1331.58,-1331.58 0,-734.3 -597.33,-1331.63 -1331.58,-1331.63zm0 3077.85c-963,0 -1746.38,-783.22 -1746.38,-1746.22 0,-963.05 783.38,-1746.27 1746.38,-1746.27 963,0 1746.22,783.22 1746.22,1746.27 0,962.79 -783.22,1746.22 -1746.22,1746.22z"/>
  <path class="fil0" d="M8640 414.49c-1269.7,0 -2539.34,483.21 -3505.97,1449.83 -1933.04,1933.19 -1933.04,5078.48 0,7011.73 936.57,936.37 2181.58,1452.13 3505.97,1452.13 1324.39,0 2569.39,-515.76 3505.91,-1452.13 936.37,-936.37 1452.18,-2181.58 1452.18,-3505.76 0,-1324.39 -515.81,-2569.6 -1452.18,-3505.97 -966.57,-966.62 -2236.27,-1449.83 -3505.91,-1449.83zm0 10328.53c-1435.09,0 -2784.32,-558.96 -3799.15,-1573.64 -2094.8,-2095.01 -2094.8,-5503.38 0,-7598.24 2094.86,-2094.8 5503.43,-2094.8 7598.24,0 1014.68,1014.68 1573.64,2363.91 1573.64,3799.15 0,1435.04 -558.96,2784.26 -1573.64,3799.09 -1014.83,1014.68 -2364.06,1573.64 -3799.09,1573.64z"/>
  <path class="fil0" d="M11530.28 8261.78l0.36 0 -0.36 0zm-2891.55 -6771.6c-994.12,0 -1988.08,378.48 -2744.88,1135.22 -733.18,733.18 -1137.01,1708.06 -1137.01,2744.88 0,1036.97 403.83,2011.65 1137.01,2745.03 1513.55,1513.34 3976.22,1513.34 5489.76,0 733.18,-733.38 1137.01,-1708.06 1137.01,-2745.03 0,-1036.82 -403.83,-2011.7 -1137.01,-2744.88 -756.8,-756.75 -1750.92,-1135.22 -2744.88,-1135.22zm0 8174.65c-1100.33,0 -2200.46,-418.78 -3038.21,-1256.33 -811.49,-811.69 -1258.32,-1890.59 -1258.32,-3038.21 0,-1147.67 446.84,-2226.78 1258.32,-3038.21 1675.31,-1675.31 4401.12,-1675.31 6076.43,0 811.49,811.44 1258.32,1890.34 1258.32,3038.21 0,1147.62 -446.84,2226.52 -1258.32,3038.21 -837.76,837.55 -1937.88,1256.33 -3038.21,1256.33z"/>
  <path class="fil0" d="M4322.91 10558.35c-53.05,0 -106.16,-20.15 -146.67,-60.66l-664.05 -664.05c-38.87,-39.08 -60.66,-91.62 -60.66,-146.67 0,-55.1 21.78,-107.79 60.66,-146.67l1011.05 -1011.05c80.96,-81.01 212.37,-81.01 293.18,0 80.96,80.96 80.96,212.32 0,293.33l-864.39 864.39 370.87 370.93 864.39 -864.59c81.01,-80.96 212.37,-80.96 293.18,0 81.01,81.01 81.01,212.37 0,293.33l-1011.05 1011.05c-40.51,40.35 -93.41,60.66 -146.51,60.66z"/>
  <path class="fil0" d="M3326.8 9648.1l-2714.27 2714.27c-264,264 -264,693.74 0,957.95l77.03 76.88c127.94,127.94 298.03,198.5 478.92,198.5 180.85,0 351.08,-70.55 479.03,-198.34l2714.12 -2714.27 -1034.83 -1034.98zm-2158.32 4362.24c-291.55,0 -565.85,-113.56 -772.26,-319.81l-76.88 -77.03c-425.77,-425.82 -425.77,-1118.7 0,-1544.31l2860.79 -2860.94c38.87,-38.87 91.62,-60.66 146.67,-60.66 55.1,0 107.79,21.78 146.67,60.66l1328.16 1328.16c81.01,80.96 81.01,212.37 0,293.18l-2860.94 2860.94c-206.25,206.25 -480.5,319.81 -772.21,319.81z"/>
  <path class="fil0" d="M1998.64 13546.72c-53.11,0 -106.16,-20.15 -146.67,-60.66l-1328.16 -1328.16c-80.96,-81.16 -80.96,-212.37 0,-293.33 81.01,-81.01 212.37,-81.01 293.18,0l1328.16 1328.16c80.96,80.96 80.96,212.37 0,293.33 -40.3,40.3 -93.41,60.66 -146.51,60.66z"/>
  <path class="fil0" d="M8584.2 5241.22c-128.15,0 -232.32,104.22 -232.32,232.37 0,128.1 104.17,232.32 232.32,232.32 128.15,0 232.32,-104.22 232.32,-232.32 0,-128.15 -104.17,-232.37 -232.32,-232.37zm0 879.34c-356.85,0 -646.96,-290.27 -646.96,-646.96 0,-356.74 290.27,-647.02 646.96,-647.02 356.69,0 646.96,290.27 646.96,647.02 0,356.69 -290.27,646.96 -646.96,646.96z"/>
 </g>
</svg>
